<?xml version="1.0" standalone="no"?><!DOCTYPE svg PUBLIC "-//W3C//DTD SVG 1.1//EN" "http://www.w3.org/Graphics/SVG/1.1/DTD/svg11.dtd"><svg t="1591951762701" class="icon" viewBox="0 0 1126 1024" version="1.1" xmlns="http://www.w3.org/2000/svg" p-id="12671" xmlns:xlink="http://www.w3.org/1999/xlink" width="24.19140625" height="22"><defs><style type="text/css"></style></defs><path d="M1047.985264 458.916234C1013.737784 198.635385 808.252903 0 561.671046 0S113.029055 198.635385 75.356827 458.916234A119.866181 119.866181 0 0 0 0.01237 571.932919a119.866181 119.866181 0 0 0 119.866181 116.441433v-164.387905C126.728047 260.280849 321.938684 47.946472 561.671046 47.946472s445.217242 222.608621 445.217242 493.163715a510.287455 510.287455 0 0 1-191.785889 404.120266h-10.274244a37.672228 37.672228 0 0 0-37.672228 37.672228 37.672228 37.672228 0 0 0 37.672228 41.096977 44.521724 44.521724 0 0 0 41.096976-37.672229 551.384431 551.384431 0 0 0 191.785889-301.377825 119.866181 119.866181 0 0 0 10.274244-226.03337z" p-id="12672"></path><path d="M928.119083 500.013211a366.448038 366.448038 0 1 0-729.471327 0 366.448038 366.448038 0 0 0 729.471327 0z m-164.387904 130.140424a243.157109 243.157109 0 0 1-202.060133 113.016685 229.458117 229.458117 0 0 1-198.635386-113.016685 17.12374 17.12374 0 0 1 6.849496-23.973236 23.973236 23.973236 0 0 1 23.973237 6.849496 198.635385 198.635385 0 0 0 167.812653 95.892945 202.060133 202.060133 0 0 0 171.2374-95.892945 17.12374 17.12374 0 0 1 23.973237-6.849496 20.548488 20.548488 0 0 1 6.849496 23.973236z" p-id="12673"></path></svg>