<?xml version="1.0" standalone="no"?><!DOCTYPE svg PUBLIC "-//W3C//DTD SVG 1.1//EN" "http://www.w3.org/Graphics/SVG/1.1/DTD/svg11.dtd"><svg t="1591951999565" class="icon" viewBox="0 0 1200 1024" version="1.1" xmlns="http://www.w3.org/2000/svg" p-id="12813" xmlns:xlink="http://www.w3.org/1999/xlink" width="25.78125" height="22"><defs><style type="text/css"></style></defs><path d="M1192.110761 161.570745c-4.366706-8.733412-8.733412-8.733412-17.466825-8.733412H205.235186l-43.667061-131.001183a26.200237 26.200237 0 0 0-26.200236-21.83353H30.566943a30.566943 30.566943 0 0 0-30.566943 30.566943 30.566943 30.566943 0 0 0 30.566943 30.566942h82.967415l213.968598 707.406386a30.566943 30.566943 0 0 0 30.566943 21.83353h668.106031a30.566943 30.566943 0 1 0 0-61.133885H379.903429l-26.200236-87.334122h689.939561a21.83353 21.83353 0 0 0 21.83353-13.100118l131.001183-449.770727c4.366706-4.366706 0-13.100118-4.366706-17.466824zM462.870845 834.043482a96.067534 96.067534 0 1 0 0 187.768362 96.067534 96.067534 0 0 0 0-187.768362zM921.374984 834.043482a96.067534 96.067534 0 1 0 0 187.768362 91.700828 91.700828 0 0 0 91.700827-91.700828 91.700828 91.700828 0 0 0-91.700827-96.067534z" p-id="12814"></path></svg>